<svg width="439" height="169" viewBox="0 0 439 169" fill="none" xmlns="http://www.w3.org/2000/svg">
<path d="M76.5741 139H64.0497V78.2078H27.3211V120.987C27.3211 123.99 28.0482 126.218 29.5023 127.672C30.9564 129.126 32.8327 129.853 35.1312 129.853C36.4446 129.853 37.5704 129.689 38.5086 129.36C39.4936 128.985 40.338 128.587 41.0416 128.164C41.7452 127.742 42.3315 127.367 42.8006 127.039C43.3166 126.663 43.7622 126.476 44.1375 126.476C44.7942 126.476 45.3805 126.874 45.8965 127.672L49.5553 133.653C47.3975 135.67 44.7942 137.264 41.7452 138.437C38.6962 139.563 35.5534 140.126 32.3168 140.126C26.6879 140.126 22.3489 138.554 19.2999 135.412C16.2978 132.269 14.7968 127.742 14.7968 121.832V78.2078H6.2127C5.46218 78.2078 4.82892 77.9967 4.31294 77.5745C3.79696 77.1055 3.53897 76.4018 3.53897 75.4637V70.468L15.219 68.9201L18.1038 46.9673C18.2445 46.2637 18.5494 45.7008 19.0185 45.2787C19.5344 44.8096 20.1912 44.5751 20.9886 44.5751H27.3211V69.1312H76.5741V139ZM79.67 44.8565C79.67 46.0761 79.412 47.2253 78.896 48.3042C78.4269 49.3362 77.7702 50.2509 76.9259 51.0483C76.1284 51.8457 75.1903 52.479 74.1114 52.9481C73.0325 53.4171 71.8833 53.6517 70.6637 53.6517C69.4441 53.6517 68.2949 53.4171 67.216 52.9481C66.184 52.479 65.2693 51.8457 64.4719 51.0483C63.6745 50.2509 63.0412 49.3362 62.5721 48.3042C62.1031 47.2253 61.8685 46.0761 61.8685 44.8565C61.8685 43.6369 62.1031 42.4877 62.5721 41.4088C63.0412 40.283 63.6745 39.3214 64.4719 38.524C65.2693 37.6796 66.184 37.0229 67.216 36.5539C68.2949 36.0848 69.4441 35.8502 70.6637 35.8502C71.8833 35.8502 73.0325 36.0848 74.1114 36.5539C75.1903 37.0229 76.1284 37.6796 76.9259 38.524C77.7702 39.3214 78.4269 40.283 78.896 41.4088C79.412 42.4877 79.67 43.6369 79.67 44.8565ZM141.125 80.389C140.75 80.905 140.375 81.3037 139.999 81.5851C139.624 81.8666 139.108 82.0073 138.451 82.0073C137.748 82.0073 136.974 81.7259 136.129 81.163C135.285 80.5532 134.23 79.8965 132.963 79.1928C131.744 78.4892 130.219 77.856 128.39 77.2931C126.607 76.6833 124.403 76.3784 121.776 76.3784C118.258 76.3784 115.162 77.0116 112.488 78.2781C109.814 79.4977 107.563 81.2802 105.733 83.6256C103.951 85.971 102.591 88.8089 101.652 92.1393C100.761 95.4698 100.316 99.1989 100.316 103.327C100.316 107.642 100.808 111.489 101.793 114.866C102.778 118.196 104.162 121.011 105.944 123.309C107.774 125.561 109.955 127.297 112.488 128.516C115.068 129.689 117.953 130.275 121.142 130.275C124.191 130.275 126.701 129.923 128.671 129.22C130.641 128.469 132.26 127.648 133.526 126.757C134.839 125.866 135.918 125.068 136.763 124.365C137.654 123.614 138.522 123.239 139.366 123.239C140.398 123.239 141.195 123.638 141.758 124.435L145.276 129.009C143.728 130.932 141.969 132.574 139.999 133.934C138.029 135.294 135.895 136.444 133.596 137.382C131.345 138.273 128.976 138.93 126.49 139.352C124.004 139.774 121.471 139.985 118.891 139.985C114.435 139.985 110.283 139.164 106.437 137.522C102.637 135.881 99.3305 133.512 96.516 130.416C93.7016 127.273 91.4969 123.427 89.902 118.877C88.3072 114.327 87.5098 109.143 87.5098 103.327C87.5098 98.0262 88.2368 93.1244 89.691 88.6213C91.192 84.1181 93.3497 80.2483 96.1642 77.0116C99.0256 73.7281 102.52 71.1716 106.648 69.3423C110.823 67.5129 115.607 66.5982 121.002 66.5982C126.021 66.5982 130.43 67.419 134.23 69.0608C138.076 70.6557 141.477 72.9307 144.432 75.8859L141.125 80.389ZM165.687 35.3577V96.361H168.923C169.861 96.361 170.635 96.2437 171.245 96.0092C171.902 95.7278 172.582 95.1883 173.286 94.3909L195.801 70.2569C196.458 69.4595 197.138 68.8497 197.842 68.4276C198.592 67.9585 199.577 67.7239 200.797 67.7239H212.125L185.88 95.6574C184.614 97.2523 183.254 98.4953 181.799 99.3866C182.644 99.9494 183.394 100.606 184.051 101.357C184.755 102.06 185.411 102.881 186.021 103.819L213.884 139H202.697C201.618 139 200.68 138.836 199.882 138.507C199.132 138.132 198.475 137.476 197.912 136.537L174.482 107.337C173.778 106.352 173.075 105.719 172.371 105.438C171.714 105.109 170.682 104.945 169.275 104.945H165.687V139H153.092V35.3577H165.687ZM262.644 95.587C262.644 92.6788 262.221 90.0285 261.377 87.6362C260.58 85.197 259.383 83.1096 257.789 81.374C256.241 79.5916 254.341 78.2312 252.089 77.2931C249.838 76.308 247.281 75.8155 244.42 75.8155C238.416 75.8155 233.655 77.5745 230.137 81.0926C226.665 84.5638 224.508 89.3952 223.663 95.587H262.644ZM272.776 129.009C271.228 130.885 269.375 132.527 267.217 133.934C265.059 135.294 262.737 136.42 260.251 137.311C257.812 138.203 255.279 138.859 252.652 139.281C250.025 139.751 247.422 139.985 244.842 139.985C239.917 139.985 235.367 139.164 231.192 137.522C227.064 135.834 223.476 133.395 220.427 130.205C217.425 126.968 215.079 122.981 213.391 118.243C211.702 113.506 210.858 108.064 210.858 101.92C210.858 96.9474 211.608 92.3035 213.109 87.988C214.657 83.6725 216.862 79.9434 219.723 76.8006C222.584 73.6108 226.079 71.1247 230.207 69.3423C234.335 67.5129 238.979 66.5982 244.139 66.5982C248.407 66.5982 252.347 67.3252 255.959 68.7794C259.618 70.1866 262.761 72.2505 265.388 74.9712C268.061 77.6449 270.149 80.9753 271.65 84.9625C273.151 88.9027 273.901 93.4058 273.901 98.4719C273.901 100.442 273.69 101.755 273.268 102.412C272.846 103.069 272.049 103.397 270.876 103.397H223.241C223.382 107.9 223.992 111.817 225.071 115.147C226.196 118.478 227.744 121.269 229.714 123.521C231.685 125.725 234.03 127.39 236.751 128.516C239.471 129.595 242.52 130.134 245.898 130.134C249.04 130.134 251.738 129.783 253.989 129.079C256.288 128.329 258.258 127.531 259.899 126.687C261.541 125.842 262.902 125.068 263.98 124.365C265.106 123.614 266.068 123.239 266.865 123.239C267.897 123.239 268.695 123.638 269.258 124.435L272.776 129.009ZM304.989 140.126C299.36 140.126 295.021 138.554 291.972 135.412C288.97 132.269 287.469 127.742 287.469 121.832V78.2078H278.885C278.134 78.2078 277.501 77.9967 276.985 77.5745C276.469 77.1055 276.211 76.4018 276.211 75.4637V70.468L287.891 68.9904L290.776 46.9673C290.917 46.2637 291.222 45.7008 291.691 45.2787C292.207 44.8096 292.863 44.5751 293.661 44.5751H299.993V69.1312H320.609V78.2078H299.993V120.987C299.993 123.99 300.72 126.218 302.175 127.672C303.629 129.126 305.505 129.853 307.803 129.853C309.117 129.853 310.243 129.689 311.181 129.36C312.166 128.985 313.01 128.587 313.714 128.164C314.417 127.742 315.004 127.367 315.473 127.039C315.989 126.663 316.434 126.476 316.81 126.476C317.466 126.476 318.053 126.874 318.569 127.672L322.228 133.653C320.07 135.67 317.466 137.264 314.417 138.437C311.368 139.563 308.226 140.126 304.989 140.126ZM375.205 95.587C375.205 92.6788 374.783 90.0285 373.939 87.6362C373.141 85.197 371.945 83.1096 370.35 81.374C368.802 79.5916 366.903 78.2312 364.651 77.2931C362.399 76.308 359.843 75.8155 356.982 75.8155C350.977 75.8155 346.216 77.5745 342.698 81.0926C339.227 84.5638 337.069 89.3952 336.225 95.587H375.205ZM385.337 129.009C383.789 130.885 381.936 132.527 379.779 133.934C377.621 135.294 375.299 136.42 372.813 137.311C370.374 138.203 367.841 138.859 365.214 139.281C362.587 139.751 359.984 139.985 357.404 139.985C352.479 139.985 347.928 139.164 343.754 137.522C339.626 135.834 336.037 133.395 332.988 130.205C329.986 126.968 327.641 122.981 325.952 118.243C324.264 113.506 323.419 108.064 323.419 101.92C323.419 96.9474 324.17 92.3035 325.671 87.988C327.219 83.6725 329.423 79.9434 332.285 76.8006C335.146 73.6108 338.641 71.1247 342.769 69.3423C346.897 67.5129 351.54 66.5982 356.7 66.5982C360.969 66.5982 364.909 67.3252 368.521 68.7794C372.18 70.1866 375.323 72.2505 377.949 74.9712C380.623 77.6449 382.71 80.9753 384.211 84.9625C385.713 88.9027 386.463 93.4058 386.463 98.4719C386.463 100.442 386.252 101.755 385.83 102.412C385.408 103.069 384.61 103.397 383.438 103.397H335.803C335.944 107.9 336.553 111.817 337.632 115.147C338.758 118.478 340.306 121.269 342.276 123.521C344.246 125.725 346.592 127.39 349.312 128.516C352.033 129.595 355.082 130.134 358.459 130.134C361.602 130.134 364.299 129.783 366.551 129.079C368.849 128.329 370.819 127.531 372.461 126.687C374.103 125.842 375.463 125.068 376.542 124.365C377.668 123.614 378.629 123.239 379.427 123.239C380.459 123.239 381.256 123.638 381.819 124.435L385.337 129.009Z" fill="#E0E0E0"/>
<rect x="395.857" y="66.5712" width="11.7662" height="72.1659" rx="5.88309" fill="#E0E0E0"/>
<rect x="411.545" y="66.5712" width="11.7662" height="34.5141" rx="5.88309" fill="#E0E0E0"/>
<rect x="427.234" y="66.5712" width="11.7662" height="22.748" rx="5.88309" fill="#E0E0E0"/>
</svg>
