<svg width="624" height="240" viewBox="0 0 624 240" fill="none" xmlns="http://www.w3.org/2000/svg">
<path d="M108.24 198H90.4171V111.488H38.1494V172.367C38.1494 176.639 39.1841 179.81 41.2534 181.879C43.3228 183.948 45.9929 184.983 49.2638 184.983C51.1329 184.983 52.7349 184.75 54.07 184.282C55.4718 183.748 56.6734 183.181 57.6747 182.58C58.676 181.979 59.5104 181.445 60.1779 180.978C60.9122 180.444 61.5463 180.177 62.0804 180.177C63.0149 180.177 63.8493 180.744 64.5836 181.879L69.7904 190.39C66.7197 193.261 63.0149 195.53 58.676 197.199C54.337 198.801 49.8646 199.602 45.2586 199.602C37.2482 199.602 31.0736 197.366 26.7346 192.893C22.4624 188.421 20.3263 181.979 20.3263 173.568V111.488H8.1105C7.04245 111.488 6.14128 111.188 5.407 110.587C4.67272 109.919 4.30557 108.918 4.30557 107.583V100.474L20.9271 98.2709L25.0324 67.0304C25.2327 66.0291 25.6666 65.2281 26.3341 64.6273C27.0684 63.9598 28.0029 63.626 29.1377 63.626H38.1494V98.5713H108.24V198ZM112.646 64.0265C112.646 65.7621 112.279 67.3976 111.544 68.9329C110.877 70.4015 109.942 71.7032 108.741 72.838C107.606 73.9728 106.271 74.8739 104.736 75.5415C103.2 76.209 101.565 76.5428 99.8292 76.5428C98.0937 76.5428 96.4582 76.209 94.9229 75.5415C93.4543 74.8739 92.1526 73.9728 91.0178 72.838C89.883 71.7032 88.9819 70.4015 88.3143 68.9329C87.6468 67.3976 87.313 65.7621 87.313 64.0265C87.313 62.291 87.6468 60.6555 88.3143 59.1202C88.9819 57.5181 89.883 56.1497 91.0178 55.0149C92.1526 53.8133 93.4543 52.8788 94.9229 52.2112C96.4582 51.5437 98.0937 51.21 99.8292 51.21C101.565 51.21 103.2 51.5437 104.736 52.2112C106.271 52.8788 107.606 53.8133 108.741 55.0149C109.942 56.1497 110.877 57.5181 111.544 59.1202C112.279 60.6555 112.646 62.291 112.646 64.0265ZM200.101 114.592C199.567 115.326 199.033 115.894 198.499 116.294C197.965 116.695 197.231 116.895 196.296 116.895C195.295 116.895 194.194 116.494 192.992 115.693C191.79 114.826 190.289 113.891 188.486 112.89C186.751 111.889 184.581 110.987 181.978 110.186C179.441 109.319 176.304 108.885 172.566 108.885C167.559 108.885 163.153 109.786 159.348 111.588C155.544 113.324 152.339 115.86 149.736 119.198C147.199 122.536 145.264 126.574 143.929 131.314C142.66 136.053 142.026 141.36 142.026 147.234C142.026 153.376 142.727 158.849 144.129 163.656C145.531 168.395 147.5 172.4 150.036 175.671C152.64 178.875 155.744 181.345 159.348 183.081C163.02 184.75 167.125 185.584 171.664 185.584C176.003 185.584 179.575 185.083 182.378 184.082C185.182 183.014 187.485 181.846 189.287 180.577C191.156 179.309 192.692 178.174 193.893 177.173C195.162 176.105 196.396 175.571 197.598 175.571C199.067 175.571 200.201 176.138 201.002 177.273L206.009 183.782C203.806 186.518 201.303 188.855 198.499 190.791C195.696 192.727 192.658 194.362 189.387 195.697C186.183 196.965 182.812 197.9 179.274 198.501C175.736 199.101 172.132 199.402 168.46 199.402C162.119 199.402 156.211 198.234 150.737 195.897C145.33 193.561 140.624 190.19 136.619 185.784C132.614 181.312 129.476 175.838 127.207 169.363C124.937 162.888 123.802 155.512 123.802 147.234C123.802 139.691 124.837 132.715 126.906 126.307C129.043 119.899 132.113 114.392 136.118 109.786C140.19 105.113 145.163 101.475 151.038 98.8717C156.979 96.2683 163.788 94.9666 171.464 94.9666C178.607 94.9666 184.882 96.1348 190.289 98.4711C195.762 100.741 200.602 103.978 204.807 108.184L200.101 114.592ZM235.054 50.509V137.321H239.66C240.995 137.321 242.097 137.155 242.965 136.821C243.899 136.42 244.867 135.653 245.868 134.518L277.91 100.173C278.844 99.0385 279.812 98.1708 280.814 97.57C281.882 96.9024 283.283 96.5687 285.019 96.5687H301.14L263.792 136.32C261.989 138.59 260.053 140.359 257.984 141.627C259.186 142.428 260.254 143.363 261.188 144.431C262.189 145.432 263.124 146.6 263.992 147.935L303.643 198H287.723C286.187 198 284.852 197.766 283.717 197.299C282.649 196.765 281.715 195.831 280.914 194.495L247.571 152.942C246.569 151.54 245.568 150.639 244.567 150.238C243.632 149.771 242.164 149.537 240.161 149.537H235.054V198H217.131V50.509H235.054ZM373.031 136.22C373.031 132.081 372.431 128.31 371.229 124.905C370.094 121.434 368.392 118.464 366.122 115.994C363.92 113.457 361.216 111.521 358.012 110.186C354.808 108.784 351.17 108.084 347.098 108.084C338.553 108.084 331.778 110.587 326.771 115.593C321.832 120.533 318.761 127.409 317.56 136.22H373.031ZM387.45 183.782C385.247 186.452 382.61 188.788 379.54 190.791C376.469 192.727 373.165 194.329 369.627 195.597C366.156 196.865 362.551 197.8 358.813 198.401C355.075 199.068 351.37 199.402 347.699 199.402C340.69 199.402 334.214 198.234 328.273 195.897C322.399 193.494 317.293 190.023 312.954 185.484C308.681 180.878 305.344 175.204 302.941 168.462C300.538 161.72 299.336 153.976 299.336 145.232C299.336 138.156 300.404 131.547 302.54 125.406C304.743 119.265 307.88 113.958 311.952 109.485C316.024 104.946 320.997 101.408 326.872 98.8717C332.746 96.2683 339.354 94.9666 346.697 94.9666C352.772 94.9666 358.379 96.0013 363.519 98.0706C368.726 100.073 373.198 103.01 376.936 106.882C380.741 110.687 383.712 115.426 385.848 121.1C387.984 126.708 389.052 133.116 389.052 140.325C389.052 143.129 388.752 144.998 388.151 145.933C387.55 146.867 386.415 147.334 384.747 147.334H316.959C317.159 153.743 318.027 159.317 319.562 164.056C321.164 168.796 323.367 172.767 326.171 175.971C328.974 179.109 332.312 181.479 336.184 183.081C340.055 184.616 344.394 185.384 349.201 185.384C353.673 185.384 357.511 184.883 360.715 183.882C363.986 182.814 366.79 181.679 369.126 180.477C371.463 179.276 373.399 178.174 374.934 177.173C376.536 176.105 377.904 175.571 379.039 175.571C380.508 175.571 381.643 176.138 382.444 177.273L387.45 183.782ZM433.292 199.602C425.282 199.602 419.107 197.366 414.768 192.893C410.496 188.421 408.36 181.979 408.36 173.568V111.488H396.144C395.076 111.488 394.175 111.188 393.441 110.587C392.706 109.919 392.339 108.918 392.339 107.583V100.474L408.961 98.371L413.066 67.0304C413.266 66.0291 413.7 65.2281 414.368 64.6273C415.102 63.9598 416.037 63.626 417.171 63.626H426.183V98.5713H455.521V111.488H426.183V172.367C426.183 176.639 427.218 179.81 429.287 181.879C431.356 183.948 434.027 184.983 437.297 184.983C439.166 184.983 440.769 184.75 442.104 184.282C443.505 183.748 444.707 183.181 445.708 182.58C446.71 181.979 447.544 181.445 448.212 180.978C448.946 180.444 449.58 180.177 450.114 180.177C451.049 180.177 451.883 180.744 452.617 181.879L457.824 190.39C454.753 193.261 451.049 195.53 446.71 197.199C442.371 198.801 437.898 199.602 433.292 199.602ZM533.215 136.22C533.215 132.081 532.615 128.31 531.413 124.905C530.278 121.434 528.576 118.464 526.306 115.994C524.104 113.457 521.4 111.521 518.196 110.186C514.992 108.784 511.354 108.084 507.282 108.084C498.737 108.084 491.962 110.587 486.955 115.593C482.016 120.533 478.945 127.409 477.744 136.22H533.215ZM547.634 183.782C545.431 186.452 542.794 188.788 539.724 190.791C536.653 192.727 533.349 194.329 529.811 195.597C526.34 196.865 522.735 197.8 518.997 198.401C515.259 199.068 511.554 199.402 507.883 199.402C500.873 199.402 494.398 198.234 488.457 195.897C482.583 193.494 477.477 190.023 473.138 185.484C468.865 180.878 465.528 175.204 463.125 168.462C460.721 161.72 459.52 153.976 459.52 145.232C459.52 138.156 460.588 131.547 462.724 125.406C464.927 119.265 468.064 113.958 472.136 109.485C476.208 104.946 481.181 101.408 487.056 98.8717C492.93 96.2683 499.538 94.9666 506.881 94.9666C512.956 94.9666 518.563 96.0013 523.703 98.0706C528.91 100.073 533.382 103.01 537.12 106.882C540.925 110.687 543.896 115.426 546.032 121.1C548.168 126.708 549.236 133.116 549.236 140.325C549.236 143.129 548.936 144.998 548.335 145.933C547.734 146.867 546.599 147.334 544.931 147.334H477.143C477.343 153.743 478.211 159.317 479.746 164.056C481.348 168.796 483.551 172.767 486.355 175.971C489.158 179.109 492.496 181.479 496.368 183.081C500.239 184.616 504.578 185.384 509.384 185.384C513.857 185.384 517.695 184.883 520.899 183.882C524.17 182.814 526.974 181.679 529.31 180.477C531.647 179.276 533.582 178.174 535.118 177.173C536.72 176.105 538.088 175.571 539.223 175.571C540.692 175.571 541.826 176.138 542.628 177.273L547.634 183.782Z" fill="#1B2131"/>
<rect x="562.604" y="94.7358" width="16.7442" height="102.698" rx="8.37209" fill="#1B2131"/>
<rect x="584.93" y="94.7358" width="16.7442" height="49.1163" rx="8.37209" fill="#1B2131"/>
<rect x="607.256" y="94.7358" width="16.7442" height="32.3721" rx="8.37209" fill="#1B2131"/>
</svg>
